<mxfile host="app.diagrams.net" modified="2023-12-26T12:20:36.764Z" agent="Mozilla/5.0 (Windows NT 10.0; Win64; x64) AppleWebKit/537.36 (KHTML, like Gecko) Chrome/118.0.0.0 YaBrowser/23.11.0.0 Safari/537.36" version="22.1.11" etag="jbMn_vD_QAMrOPJUP0AX" type="github">
  <diagram name="Страница — 1" id="90A7FPI34t8C2spLkbla">
    <mxGraphModel>
      <root>
        <mxCell id="0" />
        <mxCell id="1" parent="0" />
      </root>
    </mxGraphModel>
  </diagram>
</mxfile>
